<?xml version="1.0" encoding="utf-8"?>
<!-- Generator: Adobe Illustrator 27.7.0, SVG Export Plug-In . SVG Version: 6.00 Build 0)  -->
<svg version="1.1" id="Layer_2_00000113330619617777751690000002500630137738896558_"
	 xmlns="http://www.w3.org/2000/svg" xmlns:xlink="http://www.w3.org/1999/xlink" x="0px" y="0px" viewBox="0 0 225.8 25.6"
	 style="enable-background:new 0 0 225.8 25.6;" xml:space="preserve">
<style type="text/css">
	.st0{fill:#FFFFFF;}
</style>
<g id="VISA_Logo">
	<g>
		<path class="st0" d="M25.5,24.9c0.8-0.6,1.2-1.4,1.2-2.4c0-0.5,0-1-0.1-1.5L25.3,9.6L19,25.5c-3.2-0.1-4.2-1.9-5.4-4.6l-5-11.3
			L7.1,21c-0.1,0.5-0.2,1-0.2,1.6c0,1.1,0.5,1.7,1.4,2.3H0c1.8-1,1.9-3,2.2-4.8L4.5,4.3c0.1-0.4,0.1-0.8,0.1-1.2
			c0-0.8-0.6-1.3-1.2-1.7h8.1l6.3,14.4l5.7-14.5h7.9c-0.6,0.8-0.9,1.3-0.9,2.3c0,0.3,0,0.5,0.1,0.8l2,16.5c0.2,1.9,0.6,2.9,2.3,3.8
			C34.8,24.9,25.5,24.9,25.5,24.9z"/>
		<path class="st0" d="M51.8,24.7c-1.3,0.7-3.8,0.8-5.3,0.8c-5.8,0-11.1-2.4-11.1-9.1c0-5.5,4.2-8.6,9.4-8.6c5.5,0,8.8,2.8,8.9,8.5
			H41.3c0.2,4,2.5,6.6,6.6,6.6c2.1,0,4.1-0.8,5.9-1.9C53.8,21.1,51.8,24.7,51.8,24.7z M44.7,10.4c-1.9,0-2.9,2-3.1,3.7h6
			C47.6,12.7,46.4,10.4,44.7,10.4z"/>
		<path class="st0" d="M65.6,10.6c-2.8,0-2.9,2.7-2.9,4.9v4.7c0,1.9-0.4,3.6,1.4,4.7h-8.3c1.2-0.7,1.4-1.3,1.4-2.6
			c0-2.5,0-4.9,0-7.4c0-2.2,0.5-4.8-1.5-6.3c1,0,2,0.1,3,0.1c1.1,0,2.9,0,3.9-0.6v1.4C63.7,8.4,65.4,8,66.9,8c0.4,0,0.9,0,1.3,0.1
			v3.2C67.5,10.9,66.5,10.6,65.6,10.6z"/>
		<path class="st0" d="M79.9,10.6c-2.8,0-2.9,2.7-2.9,4.9v4.7c0,1.9-0.4,3.6,1.4,4.7h-8.3c1.2-0.7,1.4-1.3,1.4-2.6
			c0-2.5,0-4.9,0-7.4c0-2.2,0.5-4.8-1.5-6.3c1,0,2.1,0.1,3.1,0.1c1.1,0,2.9,0,3.9-0.6v1.4C78.1,8.4,79.8,8,81.3,8
			c0.4,0,0.9,0,1.3,0.1v3.2C81.8,10.9,80.8,10.6,79.9,10.6z"/>
		<path class="st0" d="M84.4,24.9c1.2-0.7,1.4-1.3,1.4-2.6c0-2.5,0-4.9,0-7.4c0-2.2,0.5-4.8-1.5-6.3c1,0,2,0.1,3.1,0.1
			s2.9,0,3.9-0.6c0,3.2-0.1,6.4-0.1,9.7c0,1.6,0,3.3,0.1,5c0,1.2,0.4,1.6,1.4,2.2C92.7,24.9,84.4,24.9,84.4,24.9z M88.1,6.9
			c-1.4,0-2.6-1.1-2.6-2.6s1.2-2.7,2.6-2.7s2.6,1.2,2.6,2.7S89.5,6.9,88.1,6.9z"/>
		<path class="st0" d="M109.3,24.6c-1.2,0.9-3.1,1-4.6,1c-5.3,0-10.4-2.7-10.4-8.6s4.8-9,10.1-9c1.4,0,2.9,0.2,4.3,0.6v3.6
			c-1.1-0.9-2.5-1.5-3.9-1.5c-2.8,0-4.8,2.9-4.8,5.5c0,3.8,2.9,6.5,6.6,6.5c1.7,0,3.3-0.7,4.7-1.6L109.3,24.6z"/>
		<path class="st0" d="M112,24.9c1.2-0.7,1.4-1.3,1.4-2.6c0-4.2,0.1-8.5,0.1-12.7c0-2.1,0-4.2-0.1-6.2c-0.1-1.3-0.4-2-1.5-2.8
			c1,0,2,0.1,3,0.1c1.2,0,2.9,0,3.9-0.7v22.2c0,1.4,0.1,2,1.4,2.7L112,24.9L112,24.9z M129.9,24.9c-3.8,0-3.8-0.4-6-3.3l-4.6-6.1
			c1.1-1.1,4.9-4.5,4.9-6c0-0.3-0.1-0.7-0.3-1h6.8l-6,6.6l5.1,6.5c1,1.3,2,2.3,3.4,3.1C132.1,24.9,131,24.9,129.9,24.9z"/>
		<path class="st0" d="M149.3,24.9h-9.6c1.2-1.1,1.8-2.1,1.8-3.9c0-3.5,0.1-7,0.1-10.6c0-2.6,0.6-7.4-1.9-9c2.4,0,4.7-0.1,7.1-0.1
			c3.6,0,11.5-0.2,11.5,5.3c0,2.5-1.3,3.6-3.6,4.5c3,0.8,5.8,2.4,5.8,6C160.4,23.3,154.2,24.9,149.3,24.9L149.3,24.9z M147.2,3.6
			v7.3c2.4,0,4.5-1,4.5-3.8C151.7,4.5,149.4,3.6,147.2,3.6z M147.8,13.1h-0.6v9c0.6,0.2,1.2,0.3,1.9,0.3c2.5,0,5.1-2,5.1-4.7
			C154.2,14.1,150.8,12.9,147.8,13.1z"/>
		<path class="st0" d="M180.3,25.3c-0.5,0.1-1,0.1-1.4,0.1c-6.4,0-5.4-4-5.4-9c-2.1,0.3-6.2,1.1-6.2,3.9c0,1.8,1.9,2.8,3.5,2.8
			c0.7,0,1.3-0.2,2-0.4l-2,2.7c-0.7,0.3-1.8,0.3-2.6,0.3c-3.2,0-6.6-2-6.6-5.6c0-7.1,11.9-3.4,11.9-7.4c0-1.6-2-2-3.2-2
			c-1.8,0-4.7,0.6-6.3,1.3l2.8-3.6c1-0.2,2.1-0.3,3.2-0.3c9.6,0,9,2.2,9,10.7c0,2.8,0.1,4.5,3.3,4.5L180.3,25.3L180.3,25.3z"/>
		<path class="st0" d="M194.7,24.9c1.3-0.7,1.4-1.3,1.4-2.6v-4.9c0-3.1,0.2-6.3-3.9-6.3c-3.1,0-3.4,2.2-3.4,4.9v4.4
			c0,1.8-0.4,3.5,1.4,4.6H182c1.2-0.7,1.4-1.3,1.4-2.6c0-2.5,0-4.9,0-7.4c0-2.2,0.5-4.8-1.5-6.3c1,0,1.9,0.1,2.9,0.1
			c1.1,0,2.8,0,3.8-0.6V10c1.7-1.2,3.9-1.9,6-1.9c8.3,0,7.1,7.1,7.1,13c0,1.8-0.3,3,1.4,4L194.7,24.9L194.7,24.9z"/>
		<path class="st0" d="M204.5,24.9c1.2-0.7,1.4-1.3,1.4-2.6c0-4.2,0.1-8.5,0.1-12.7c0-2.1,0-4.2-0.1-6.2c-0.1-1.3-0.4-2-1.5-2.8
			c1,0,2,0.1,3,0.1c1.2,0,2.9,0,3.9-0.7v22.2c0,1.4,0.1,2,1.4,2.7L204.5,24.9L204.5,24.9z M222.4,24.9c-3.8,0-3.9-0.4-6-3.3
			l-4.6-6.1c1.1-1.1,4.9-4.5,4.9-6c0-0.3-0.1-0.7-0.3-1h6.8l-6,6.6l5.1,6.5c1,1.3,2,2.3,3.4,3.1C224.6,24.9,223.5,24.9,222.4,24.9z"
			/>
	</g>
</g>
</svg>
